<svg width="16" height="17" viewBox="0 0 16 17" fill="none" xmlns="http://www.w3.org/2000/svg">
<path d="M1.06188 1.29112C0.890386 1.46616 0.791138 1.73867 0.791138 2.09159V14.6799C0.791138 15.0328 0.890386 15.3053 1.06188 15.4804L1.10421 15.5188L8.33915 8.46758V8.30108L1.10421 1.24986L1.06188 1.29112Z" fill="black"/>
<path d="M11.6238 10.8192L9.21484 8.46762V8.30112L11.6267 5.94953L11.6807 5.98013L14.5371 7.56469C15.3522 8.01438 15.3522 8.75437 14.5371 9.2069L11.6807 10.7886L11.6238 10.8192Z" fill="black"/>
<path d="M11.2429 11.2265L8.77702 8.82222L1.49976 15.9183C1.7705 16.1958 2.21201 16.2292 2.71409 15.9517L11.2429 11.2265Z" fill="black"/>
<path d="M11.2429 5.54223L2.71409 0.816985C2.21201 0.542336 1.7705 0.575777 1.49976 0.853272L8.77702 7.94647L11.2429 5.54223Z" fill="black"/>
</svg>
