<svg xmlns="http://www.w3.org/2000/svg" width="804" height="804" preserveAspectRatio="xMidYMid meet" version="1.0" viewBox="0 0 603 603"><metadata>Created by potrace 1.14, written by Peter Selinger 2001-2017</metadata><g fill="#000" stroke="none"><path d="M2718 5731 c-65 -115 -118 -213 -118 -217 0 -4 24 -51 54 -103 69 -123 93 -166 124 -221 14 -25 42 -74 62 -110 20 -36 71 -126 112 -200 42 -74 85 -152 97 -172 11 -21 29 -53 39 -70 77 -135 168 -298 179 -320 8 -16 16 -28 18 -28 3 0 37 59 98 170 10 19 32 55 47 80 l29 45 896 0 c493 0 900 2 904 5 4 3 21 30 37 60 16 30 32 57 37 58 4 2 7 8 7 12 0 5 36 73 81 152 141 250 176 312 204 363 16 28 45 79 65 115 73 130 278 496 304 543 l27 47 -1593 0 -1593 0 -117 -209z" transform="translate(0.000000,603.000000) scale(0.100000,-0.100000)"/><path d="M2225 4853 c-77 -137 -166 -295 -198 -353 -33 -58 -73 -130 -90 -160 -17 -30 -50 -87 -73 -127 -57 -96 -58 -104 -33 -150 29 -52 238 -423 283 -501 20 -35 36 -65 36 -67 0 -1 41 -74 90 -161 50 -86 90 -159 90 -160 0 -2 13 -25 29 -52 32 -55 70 -122 114 -202 17 -30 41 -72 54 -92 13 -21 23 -40 23 -42 0 -2 32 -59 70 -126 39 -67 70 -123 70 -125 0 -2 23 -43 51 -92 53 -92 79 -137 135 -238 18 -33 64 -116 103 -184 39 -69 72 -129 74 -135 2 -6 128 -10 336 -10 333 -1 371 2 371 34 0 5 15 35 34 67 18 32 45 78 58 103 14 25 35 63 48 85 12 22 54 96 93 165 38 69 141 252 228 407 88 155 159 284 159 287 0 3 -189 7 -421 8 l-421 3 -25 45 c-14 25 -37 65 -51 90 -53 94 -386 687 -405 720 -11 19 -42 75 -69 124 -28 50 -78 140 -113 200 -34 61 -75 134 -90 161 -15 28 -56 100 -90 160 -34 61 -74 133 -90 160 -15 28 -53 95 -85 150 -31 55 -76 135 -99 178 -23 42 -46 77 -50 77 -4 0 -70 -111 -146 -247z" transform="translate(0.000000,603.000000) scale(0.100000,-0.100000)"/><path d="M1549 3652 c-30 -57 -474 -847 -534 -952 -24 -41 -73 -129 -110 -195 -103 -183 -151 -269 -191 -340 -12 -22 -35 -62 -49 -90 -15 -27 -42 -75 -60 -105 -27 -46 -195 -343 -355 -630 -20 -36 -82 -146 -138 -246 -55 -99 -102 -184 -104 -190 -3 -11 16 -60 40 -99 20 -31 304 -534 362 -640 18 -33 35 -62 37 -65 5 -6 4713 -8 4731 -2 8 3 9 9 4 16 -5 6 -20 31 -34 56 -27 48 -130 232 -236 420 -75 134 -138 247 -194 345 -21 39 -51 90 -65 115 -14 25 -40 73 -59 106 -18 34 -42 63 -51 65 -10 2 -683 4 -1495 4 -813 0 -1478 2 -1478 5 0 3 18 36 40 74 22 37 40 70 40 72 0 1 16 30 35 62 63 108 106 187 112 205 3 9 9 17 14 17 5 0 9 4 9 9 0 5 68 130 151 278 84 147 164 291 179 318 14 28 33 61 42 75 9 14 30 51 47 83 l31 58 -182 322 c-99 177 -192 342 -206 367 -31 55 -145 259 -180 320 -15 25 -34 59 -43 75 -55 102 -74 135 -79 135 -3 0 -16 -22 -31 -48z" transform="translate(0.000000,603.000000) scale(0.100000,-0.100000)"/></g></svg>